PathFileType  4	(X/Y/Z) C:\Users\antoi\Documents\MyRepositories\mobilecap\ResultsAnalysis
DataRate	CameraRate	NumFrames	NumMarkers	Units	OrigDataRate	OrigDataStartFrame	OrigNumFrames
100.0	100.0	7	51	mm	100.0	232	371
Frame#	Time	r_knee			r_shank_antsup			r_ankle			r_calc			r_5meta			r_toe			L_knee			L_shank_antsup			L_ankle			L_calc			L_5meta			L_toe			r_sh2			r_sh3			r_sh4			L_sh2			L_sh3			r_thigh1			r_thigh2			r_thigh3			r_thigh4			r_thigh5			L_thigh1			L_thigh2			L_thigh3			L_thigh4			r.ASIS			r.PSIS			L.ASIS			L.PSIS			C7			R_Shoulder			L_Shoulder			R_Sternum			L_Sternum			R_humerus			R_elbow_med			R_elbow_lat			R_forearm			R_wrist_radius			R_wrist_ulna			L_humerus			L_elbow_med			L_elbow_lat			L_forearm			L_wrist_radius			L_wrist_ulna			R_HJC			L_HJC			R_HJC_reg			L_HJC_reg			
		X1	Y1	Z1	X2	Y2	Z2	X3	Y3	Z3	X4	Y4	Z4	X5	Y5	Z5	X6	Y6	Z6	X7	Y7	Z7	X8	Y8	Z8	X9	Y9	Z9	X10	Y10	Z10	X11	Y11	Z11	X12	Y12	Z12	X13	Y13	Z13	X14	Y14	Z14	X15	Y15	Z15	X16	Y16	Z16	X17	Y17	Z17	X18	Y18	Z18	X19	Y19	Z19	X20	Y20	Z20	X21	Y21	Z21	X22	Y22	Z22	X23	Y23	Z23	X24	Y24	Z24	X25	Y25	Z25	X26	Y26	Z26	X27	Y27	Z27	X28	Y28	Z28	X29	Y29	Z29	X30	Y30	Z30	X31	Y31	Z31	X32	Y32	Z32	X33	Y33	Z33	X34	Y34	Z34	X35	Y35	Z35	X36	Y36	Z36	X37	Y37	Z37	X38	Y38	Z38	X39	Y39	Z39	X40	Y40	Z40	X41	Y41	Z41	X42	Y42	Z42	X43	Y43	Z43	X44	Y44	Z44	X45	Y45	Z45	X46	Y46	Z46	X47	Y47	Z47	X48	Y48	Z48	X49	Y49	Z49	X50	Y50	Z50	X51	Y51	Z51	

232	2.31000000	-131.78475	415.79639	-374.42686	-109.07621	302.21902	-378.08344	-295.95060	93.76823	-388.43176	-352.92190	54.61238	-437.90343	-206.56983	40.35855	-331.84036	-162.12504	55.76642	-369.15373	-120.21769	412.98378	-804.84581	-92.55956	296.05690	-772.33214	-301.41431	95.55588	-808.42658	-360.85595	55.29599	-765.61557	-203.07513	36.99908	-848.47122	-157.57357	51.74698	-797.82823	-168.39877	206.25322	-387.85259	-165.12482	329.61225	-335.54737	-233.95819	242.64894	-353.85707	-133.62744	347.60709	-835.06420	-200.86236	246.95078	-851.78781	-341.32940	626.69354	-409.21787	-251.66905	580.58751	-400.11610	-252.64241	527.73288	-355.99385	-396.46218	533.36216	-376.27298	-289.80873	483.78391	-351.16596	-330.96017	602.16798	-790.34935	-208.79576	554.33711	-792.25321	-386.82775	509.53301	-819.04817	-254.95065	459.59074	-823.89412	-322.46748	618.34927	-472.54916	-471.88873	727.92011	-549.80612	-316.88254	612.37044	-715.84036	-469.94450	728.69412	-660.68529	-162.59937	1049.09333	-589.07247	-122.87541	982.19510	-434.30727	-110.21992	976.81509	-744.89356	-80.74179	934.40401	-568.21222	-78.20627	929.70259	-612.12566	-181.23139	862.73378	-380.95186	-356.90104	744.72678	-414.77623	-330.49759	739.91168	-344.38077	-358.83635	613.03511	-321.64405	-383.09422	512.88672	-317.98903	-402.78694	530.66613	-305.25768	-175.21737	843.68622	-802.13516	-341.18545	725.12847	-771.62684	-318.00389	727.56134	-839.70191	-338.82174	635.17970	-874.62567	-404.68678	518.41149	-891.39593	-416.33145	522.92399	-896.78725	-433.43436	588.14224	-500.51339	-425.23710	578.59780	-689.46919	-415.17466	579.14071	-508.47610	-412.35787	580.26778	-669.11296	
233	2.32000000	-126.91139	413.80729	-373.00903	-106.51064	300.41531	-376.97212	-295.49935	93.94836	-388.50790	-352.78629	54.82226	-438.00524	-206.53554	40.36345	-331.74606	-162.01508	55.63400	-369.11889	-116.86025	410.29842	-804.62596	-90.29728	293.99232	-771.65817	-301.53752	96.06086	-808.26170	-360.67735	55.66268	-765.50021	-203.02408	37.04036	-848.35406	-157.43527	51.61572	-797.77067	-167.06666	205.03535	-387.41196	-162.50700	328.34265	-334.62203	-232.25877	242.26521	-353.24091	-130.57807	345.84923	-834.63084	-198.82878	245.79656	-851.50967	-338.32386	625.81735	-407.17166	-247.56484	577.99721	-399.88716	-248.29839	524.60069	-355.57167	-391.95061	530.58886	-375.48688	-286.72085	480.36674	-355.56255	-327.42055	599.27673	-791.54682	-205.12682	551.16197	-793.05992	-383.64623	506.10324	-818.18800	-251.81577	455.70164	-823.12166	-318.62918	617.20880	-472.27673	-467.86415	726.13126	-549.58754	-312.49122	611.00782	-716.35221	-466.03311	727.27685	-660.10059	-160.32794	1047.26064	-589.45009	-120.95823	981.39508	-434.84764	-108.15155	974.53276	-744.21350	-78.42236	933.57372	-568.21233	-75.60322	928.93619	-611.73970	-173.05073	861.17262	-380.40538	-338.93654	727.87344	-411.27998	-312.43244	725.16029	-346.25234	-328.28799	598.42997	-316.72893	-342.34502	494.51036	-312.07861	-346.92221	502.36586	-310.71142	-165.38264	840.04902	-802.10043	-320.53925	706.36812	-774.69135	-295.96257	711.62490	-842.12735	-307.07640	618.11181	-877.65396	-363.80441	494.02487	-895.03593	-373.28883	501.19307	-899.87207	-429.22171	586.52959	-500.46040	-421.01364	577.20596	-689.42775	-410.98417	577.08249	-508.36379	-408.31064	578.75236	-669.53309	
234	2.33000000	-122.95466	411.74914	-371.87593	-103.85564	298.46384	-376.48313	-295.02967	94.44048	-388.22781	-352.64006	55.03536	-438.09232	-206.54647	40.49761	-331.56121	-161.91085	55.51847	-369.06654	-112.92798	408.18267	-805.04947	-87.78085	292.09964	-771.71110	-301.18097	96.35766	-807.67616	-360.58216	56.20318	-765.53684	-202.97294	37.08140	-848.27762	-157.26389	51.49054	-797.71637	-165.45184	203.85255	-387.09555	-159.46288	326.90765	-333.83315	-230.48004	241.77393	-352.70998	-127.50246	344.17272	-834.71983	-196.91275	244.94067	-851.49785	-334.70495	624.13553	-407.39392	-242.73844	575.75849	-399.37641	-243.09004	522.36885	-355.39720	-385.75474	527.36982	-375.65645	-282.80406	478.08881	-357.82592	-323.35271	596.84737	-792.15132	-201.26647	548.68411	-793.76204	-380.02731	503.25462	-817.81126	-248.53129	452.32083	-821.42817	-315.45797	617.75136	-472.49218	-464.36370	724.66376	-549.11494	-308.64831	608.10390	-715.74444	-462.39884	726.02316	-660.15872	-159.36933	1047.21020	-590.50045	-119.74019	982.20694	-435.55802	-107.06887	974.90370	-743.60882	-76.86694	934.50325	-568.35323	-74.11367	929.76126	-611.86801	-164.91056	861.64896	-379.85340	-318.63386	713.28207	-408.02244	-290.54861	715.77091	-340.19336	-296.02373	587.50340	-312.24884	-299.17457	480.76811	-306.14052	-316.21155	485.20099	-301.96247	-155.72576	839.01173	-802.80892	-297.73583	690.24456	-777.44417	-272.19896	698.90553	-844.34074	-273.07178	604.96157	-879.98960	-320.64548	478.81016	-900.14853	-325.89415	479.99367	-901.12504	-425.57929	586.12737	-499.49353	-417.55401	575.15142	-688.37682	-407.10045	575.07800	-508.56732	-404.25791	577.04334	-669.27805	
235	2.34000000	-119.73607	409.70495	-371.06123	-101.35681	296.40329	-376.49561	-294.83173	95.31391	-387.63288	-352.52227	55.21067	-438.20003	-206.55680	40.67482	-331.33815	-161.82171	55.41326	-369.00378	-108.67554	406.44962	-806.06972	-85.00279	290.29408	-772.09840	-300.56366	96.76060	-807.10873	-360.36237	56.67971	-765.17224	-202.91419	37.11326	-848.16728	-157.04194	51.36805	-797.66694	-163.77254	202.61696	-386.94922	-156.55640	325.49506	-333.66150	-228.63409	241.17564	-352.72217	-124.58729	342.33524	-835.25928	-195.11194	243.62602	-850.68677	-329.35661	620.88796	-409.57651	-237.59746	573.82655	-398.72315	-237.39267	521.93516	-354.95406	-379.93033	525.54514	-375.06824	-278.05084	477.45592	-356.26859	-318.85218	594.98838	-791.61232	-197.21023	546.74318	-793.43580	-375.94472	501.24718	-817.89249	-244.20820	450.96155	-820.20592	-311.78339	617.97639	-472.57408	-461.42083	723.46115	-548.39239	-304.91629	605.82111	-714.81484	-459.28587	724.85395	-660.49034	-159.94225	1048.65852	-591.77273	-119.17282	984.52680	-436.45026	-107.05866	977.38895	-743.45298	-76.41840	937.03192	-568.58592	-73.54978	932.41742	-612.23661	-156.85190	864.20602	-378.98554	-296.31745	701.29160	-404.79616	-261.51213	715.09320	-314.75263	-261.70651	580.75762	-307.51610	-253.74808	472.35179	-300.36729	-293.79238	477.97409	-285.77759	-146.21761	840.46974	-804.13685	-272.36218	677.37020	-779.55425	-246.88858	689.77228	-846.58797	-237.52655	596.25367	-882.10037	-266.38255	467.54879	-901.66055	-283.89775	466.13657	-906.53005	-421.88879	585.65482	-498.53149	-414.07702	573.32732	-687.34834	-403.11200	573.49866	-508.58338	-400.06457	575.48858	-668.68115	
236	2.35000000	-116.37334	407.60080	-370.80874	-98.90733	294.45118	-376.32244	-294.64559	95.96226	-387.30609	-352.38963	55.32878	-438.31088	-206.51983	40.74158	-331.24752	-161.71364	55.33605	-368.92617	-104.67041	404.77319	-806.64023	-82.27166	288.62367	-772.35419	-300.10439	97.42308	-806.87219	-359.91134	57.08101	-764.33138	-202.85593	37.15372	-848.00485	-156.81271	51.22650	-797.65325	-162.39792	201.18633	-387.06249	-154.22152	324.25922	-334.10244	-226.74701	240.58331	-352.93080	-120.93603	340.98977	-835.64287	-193.33976	242.15287	-849.69209	-323.31751	617.75365	-411.76224	-232.40174	572.65075	-398.52323	-232.66037	521.83859	-354.14173	-375.39806	525.24052	-373.88809	-272.54686	477.42592	-354.77491	-314.04725	593.87020	-789.94751	-191.68788	545.63331	-791.69536	-371.62832	500.28666	-817.85990	-238.99233	451.37874	-821.57213	-307.35601	616.47622	-472.46871	-458.93005	722.47571	-547.41553	-301.14397	604.81505	-714.08755	-456.85077	723.82787	-660.65539	-161.50966	1051.08482	-592.14850	-119.14590	988.27656	-437.81425	-107.81159	981.64282	-743.57060	-76.66461	941.06555	-568.87034	-73.76483	936.55956	-612.52070	-148.57182	868.79536	-377.80545	-272.26623	692.29383	-401.40110	-233.45200	715.02068	-295.94077	-224.74701	578.45750	-302.12432	-206.22456	469.96805	-294.94848	-244.34433	475.65521	-280.73173	-136.75433	844.53056	-805.91600	-244.55973	667.93246	-781.10926	-220.31437	684.54927	-848.92771	-200.92037	592.94015	-884.86538	-216.74462	459.50473	-905.60601	-231.30170	462.50639	-910.88061	-418.13329	584.29939	-498.12939	-410.53780	572.14326	-686.96532	-399.00560	572.34446	-508.30410	-396.07214	574.25196	-667.96991	
237	2.36000000	-112.48973	405.80704	-371.01946	-96.21113	292.84507	-375.68116	-294.00307	95.86863	-387.85508	-352.22609	55.57685	-438.42581	-206.46039	40.70571	-331.27694	-161.57009	55.21974	-368.87770	-101.09715	403.24606	-805.92608	-79.86679	287.12589	-772.30611	-299.53529	97.92486	-806.72659	-359.43395	57.76912	-763.62950	-202.81446	37.26502	-847.88810	-156.59165	51.10768	-797.70599	-161.08253	199.81800	-387.08514	-151.91768	323.12828	-334.52254	-224.82274	240.15380	-352.78831	-116.26379	340.68483	-835.31357	-191.30983	241.81242	-850.58215	-318.16169	616.56375	-412.33963	-226.93413	572.39622	-398.48898	-229.21696	520.56797	-353.47232	-371.30003	525.15299	-373.58313	-267.03579	476.92500	-355.90292	-309.25596	593.57369	-788.08341	-185.09603	545.39934	-789.45598	-367.36613	500.40232	-817.37340	-234.46417	451.63815	-823.99241	-303.20990	614.74882	-472.33666	-456.68073	721.74741	-546.51042	-297.75360	604.75210	-713.83490	-454.92238	722.97413	-660.66090	-163.47219	1054.68287	-591.69564	-119.61508	993.45136	-439.60012	-109.21797	987.65324	-743.95608	-76.37680	946.58661	-569.27774	-74.63296	941.88513	-612.62121	-139.96051	875.02906	-377.14314	-246.78035	686.71465	-397.61907	-213.68162	708.51298	-307.85311	-184.77214	580.81419	-296.80126	-156.81251	474.29148	-290.09811	-173.29959	477.72257	-285.15552	-127.36304	851.39049	-807.90381	-214.09882	662.76739	-782.27668	-192.78108	683.59388	-850.93140	-163.53469	595.55194	-888.30661	-177.42308	460.04089	-915.61696	-162.00802	464.71334	-910.18387	-414.63899	582.86016	-498.09547	-407.28724	571.52298	-686.98937	-395.21570	571.76971	-507.85562	-392.75741	573.48352	-667.39547	
238	2.37000000	-108.49671	404.66843	-371.33378	-93.40053	291.28523	-375.50566	-292.98412	95.41467	-389.07790	-352.05579	56.11413	-438.58031	-206.38490	40.70185	-331.30730	-161.40252	54.99729	-368.92801	-97.45775	402.20718	-805.17701	-77.55794	285.74053	-771.90023	-298.57230	98.23063	-806.41207	-359.07155	58.91700	-763.30799	-202.75489	37.46545	-847.82488	-156.32686	51.07397	-797.78097	-159.50455	198.64479	-387.20859	-148.89107	321.83142	-334.65987	-222.73622	239.92114	-352.66312	-112.69020	340.34375	-835.13166	-188.98183	242.59333	-852.92315	-313.82888	616.79869	-412.04488	-221.09300	572.41629	-398.45222	-225.38027	519.03712	-353.67344	-367.08325	525.11352	-374.06376	-262.48346	476.69898	-357.09621	-304.84254	593.94424	-786.73271	-180.14528	545.29094	-788.49144	-363.28025	501.26843	-816.73936	-230.88865	451.31211	-824.24686	-299.77669	615.08772	-471.98804	-454.58110	721.37563	-545.90738	-294.74192	605.93207	-713.70119	-453.14797	722.26034	-660.64856	-166.04808	1059.70868	-591.47611	-120.61166	1000.09124	-441.46506	-111.50894	995.27371	-744.84248	-75.83552	953.53047	-569.91707	-75.94981	948.76356	-612.64332	-131.45073	882.96628	-377.44133	-220.15374	684.95664	-393.25780	-194.17718	703.76072	-326.02121	-142.19285	588.65181	-292.35336	-105.67969	486.00394	-285.96975	-115.67873	485.24196	-280.54426	-118.13260	861.07350	-809.89368	-180.25056	663.46337	-782.52187	-164.60580	687.21434	-852.48851	-125.11371	603.99609	-891.80910	-122.76112	470.86552	-920.83422	-102.18332	471.17622	-913.26654	-411.15156	582.49165	-497.89339	-403.91312	571.48305	-686.81186	-391.62390	572.27654	-507.16737	-389.63106	573.50672	-666.82965	
